# xmcd CD database file
#
# Track frame offsets:
#	150
#	13097
#	26560
#	36172
#	46725
#	57180
#	68965
#	81725
#	94260
#	107637
#	118312
#	130610
#	147675
#	160077
#	173757
#	185155
#	196707
#	208100
#	220152
#	239285
#
# Disc length: 3294 seconds
#
# Revision: 4
# Processed by: cddbd v1.5.2PL0 Copyright (c) Steve Scherf et al.
# Submitted via: CDex 1.51
#
DISCID=270cdc14
DTITLE=Various Artist - The Country Superstars (20 Golden Hits)
DYEAR=1900
DGENRE=Country
TTITLE0=Kenny Rogers - Ruby Don't Take Your Love To Town
TTITLE1=Lynn Anderson - Rose Garden
TTITLE2=Willie Nelson - Building Heartaches
TTITLE3=Dolly Parton - Honky Tonk Angels
TTITLE4=Waylon Jennings - Lorena
TTITLE5=Patsy Cline - Walking After Midnight
TTITLE6=Johnny Cash - Folsom Prison Blues
TTITLE7=Billy Joe Spears - Sunshine
TTITLE8=Alabama - Patches
TTITLE9=The Everly Brothers - All I Have To Do Is Dream
TTITLE10=Kenny Rogers - Ruben James
TTITLE11=Lynn Anderson - Blue Bayou
TTITLE12=Johnny Paycheck - I Am Not Looking Back Anymore
TTITLE13=George Jones - A Good Year For The Roses
TTITLE14=Dolly Parton - Makin' Believe
TTITLE15=Oak Ridge Boys - No One Cared So Much
TTITLE16=Patsy Cline - I've Loved And Lost Again
TTITLE17=Johnny Cash - You're The Nearest Thing To Heaven
TTITLE18=Alabama - I Want To Be With You Tonight
TTITLE19=Freddy Fender - Wasted Days And Wasted Nights
EXTD=
EXTT0=
EXTT1=
EXTT2=
EXTT3=
EXTT4=
EXTT5=
EXTT6=
EXTT7=
EXTT8=
EXTT9=
EXTT10=
EXTT11=
EXTT12=
EXTT13=
EXTT14=
EXTT15=
EXTT16=
EXTT17=
EXTT18=
EXTT19=
PLAYORDER=
